{"title":"Adams Family Values en subs","uid":8554351,"size":540533937,"categoryP":"video","categoryS":"movies","magnet":"?xt=urn:btih:a93af1ef2ad48b046c5a131bbffec5ef21164536&amp;dn=Adams+Family+Values+en+subs&amp;tr=udp%3A%2F%2Ftracker.openbittorrent.com%3A80&amp;tr=udp%3A%2F%2Fopen.demonii.com%3A1337&amp;tr=udp%3A%2F%2Ftracker.coppersurfer.tk%3A6969&amp;tr=udp%3A%2F%2Fexodus.desync.com%3A6969","seeders":1,"leechers":1,"uploader":"WICKED-MIND","files":2,"time":1370724313,"description":"General\nComplete name                    : Adams Family Values (mp4)\nFormat                           : MPEG-4\nFormat profile                   : Base Media\nCodec ID                         : isom\nFile size                        : 515 MiB\nDuration                         : 1h 34mn\nOverall bit rate                 : 766 Kbps\nWriting application              : Lavf52.57.1\n\nVideo\nID                               : 1\nFormat                           : MPEG-4 Visual\nFormat profile                   : Simple@L3\nFormat settings, BVOP            : No\nFormat settings, QPel            : No\nFormat settings, GMC             : No warppoints\nFormat settings, Matrix          : Default (H.263)\nCodec ID                         : 20\nDuration                         : 1h 34mn\nBit rate mode                    : Variable\nBit rate                         : 633 Kbps\nWidth                            : 512 pixels\nHeight                           : 288 pixels\nDisplay aspect ratio             : 16:9\nFrame rate mode                  : Variable\nFrame rate                       : 23.976 fps\nMinimum frame rate               : 23.976 fps\nMaximum frame rate               : 24.000 fps\nColor space                      : YUV\nChroma subsampling               : 4:2:0\nBit depth                        : 8 bits\nScan type                        : Progressive\nCompression mode                 : Lossy\nBits/(Pixel*Frame)               : 0.179\nStream size                      : 426 MiB (83%)\nWriting library                  : ZJMedia MPEG Encoder\n\nAudio\nID                               : 2\nFormat                           : AAC\nFormat/Info                      : Advanced Audio Codec\nFormat profile                   : LC\nCodec ID                         : 40\nDuration                         : 1h 34mn\nBit rate mode                    : Variable\nBit rate                         : 128 Kbps\nChannel(s)                       : 2 channels\nChannel positions                : Front: L R\nSampling rate                    : 48.0 KHz\nCompression mode                 : Lossy\nStream size                      : 86.1 MiB (17%)\n\n\n\n A comical Gothic horror-movie-type family tries to rescue their beloved uncle from his gold-digging new love.\n\nDirector:\nBarry Sonnenfeld\nWriters:\nCharles Addams (characters), Paul Rudnick\nStars:\nAnjelica Huston, Raul Julia, Christopher Lloyd","torrent":{"xt":"urn:btih:a93af1ef2ad48b046c5a131bbffec5ef21164536","amp;dn":"Adams+Family+Values+en+subs","amp;tr":["udp%3A%2F%2Ftracker.openbittorrent.com%3A80","udp%3A%2F%2Fopen.demonii.com%3A1337","udp%3A%2F%2Ftracker.coppersurfer.tk%3A6969","udp%3A%2F%2Fexodus.desync.com%3A6969"],"infoHash":"a93af1ef2ad48b046c5a131bbffec5ef21164536","infoHashBuffer":{"type":"Buffer","data":[169,58,241,239,42,212,139,4,108,90,19,27,191,254,197,239,33,22,69,54]},"announce":[],"urlList":[]}}